<?xml version="1.0" encoding="UTF-8"?>
<svg width="752pt" height="752pt" version="1.1" viewBox="0 0 752 752" xmlns="http://www.w3.org/2000/svg">
 <g>
  <path d="m752 376c0 134.33-71.664 258.46-188 325.62-116.34 67.168-259.66 67.168-376 0-116.34-67.164-188-191.29-188-325.62s71.664-258.46 188-325.62c116.34-67.168 259.66-67.168 376 0 116.34 67.164 188 191.29 188 325.62" fill="#12b0fb"/>
  <path d="m267.77 381.12 82.695 78.074 222.52-212.3c5.9141-5.6406 15.281-5.4219 20.926 0.49219 5.6406 5.9141 5.4219 15.281-0.49219 20.922l-232.68 221.99c-5.6953 5.4336-14.648 5.457-20.375 0.054687l-92.91-87.715c-5.9414-5.6133-6.2109-14.977-0.60156-20.922 5.6133-5.9414 14.98-6.2109 20.922-0.60156zm-109.12 21.523c-5.9414-5.6133-6.2109-14.977-0.60156-20.922 5.6133-5.9414 14.98-6.2109 20.922-0.60156l92.91 87.715c5.9414 5.6094 6.2109 14.977 0.60156 20.922-5.6094 5.9414-14.977 6.2109-20.922 0.60156zm209.33-3.9688c-5.9141 5.6406-15.281 5.4219-20.926-0.49219-5.6406-5.9141-5.4219-15.281 0.49219-20.926l136.64-130.36c5.9141-5.6406 15.281-5.4219 20.926 0.49219 5.6406 5.9141 5.4219 15.281-0.49219 20.922z" fill="#fff"/>
 </g>
</svg>
